<?xml version="1.0" encoding="utf-8"?>
<!-- Generator: Adobe Illustrator 21.0.2, SVG Export Plug-In . SVG Version: 6.00 Build 0)  -->
<svg version="1.1" id="Слой_1" xmlns="http://www.w3.org/2000/svg" xmlns:xlink="http://www.w3.org/1999/xlink" x="0px" y="0px"
	 viewBox="0 0 297.5 53" style="enable-background:new 0 0 297.5 53;" xml:space="preserve">
<style type="text/css">
	.st0{fill:#ffffff;}
</style>
<g id="Слой_x0020_1">
	<g>
		<path class="st0" d="M39.8,39.6c-0.4,0-0.7-0.2-0.9-0.6c-0.2-0.4-0.3-0.9-0.3-1.5c0-0.6-0.1-1.3-0.1-2c0-0.7,0-1.5-0.1-2.2
			c-0.1-1.4-0.4-2.5-0.9-3.3c-0.5-0.8-1-1.5-1.6-1.9c-0.6-0.4-1.2-0.7-1.8-0.8c-0.6-0.1-1-0.2-1.4-0.2l0-0.2
			c0.5-0.4,0.9-0.9,1.1-1.6c0.2-0.6,0.3-1.6,0.3-3c0-0.5,0.1-1.1,0.1-1.7c0-0.7,0.1-1.3,0.1-1.9c0.1-0.6,0.2-1.1,0.4-1.5
			c0.2-0.4,0.4-0.6,0.8-0.6c0.2,0,0.3,0.1,0.3,0.2c0,0.1,0,0.3,0,0.5c0,0.2,0,0.4-0.1,0.5c-0.1,0.1-0.1,0.3-0.2,0.5
			c0,0.1,0,0.2,0,0.3c0,0.1,0,0.2,0,0.3c0,0.6,0.2,1.1,0.5,1.6c0.4,0.5,0.9,0.8,1.7,0.8c0.8,0,1.4-0.3,1.8-0.9
			c0.4-0.7,0.6-1.4,0.6-2.2c0-0.3-0.1-0.7-0.2-1.1c-0.1-0.4-0.3-0.8-0.6-1.1c-0.2-0.3-0.6-0.6-1-0.8c-0.4-0.2-0.9-0.3-1.5-0.3
			c-0.7,0-1.2,0.1-1.7,0.3c-0.4,0.2-0.8,0.6-1.1,1.2c-0.3,0.6-0.5,1.3-0.7,2.3c-0.2,1-0.3,2.2-0.3,3.7c0,1-0.1,1.9-0.2,2.5
			c-0.2,0.6-0.3,1.1-0.6,1.4c-0.2,0.3-0.5,0.5-0.9,0.6c-0.3,0.1-0.7,0.1-1.1,0.1H29V16.1h2.3v-0.9h-7.9h-0.8h-5v0.9h0.4
			c0.1,0,0.2,0,0.4,0c0.2,0,0.4,0.1,0.6,0.2c0.2,0.1,0.4,0.3,0.6,0.5c0.1,0.3,0.2,0.6,0.2,1.1c0,0.1,0,0.4-0.1,0.8
			c0,0.4-0.2,1.1-0.5,2.1l-2.8,9.9l-5.1-14.7h2.1v-0.9H4.9v0.9h1.7L14,37.2c-0.2,0.7-0.5,1.3-0.8,1.7c-0.3,0.4-0.6,0.7-0.8,0.9
			s-0.5,0.3-0.8,0.4c-0.3,0-0.5,0.1-0.7,0.1c-0.7,0-1.2-0.1-1.5-0.4c-0.3-0.3-0.5-0.5-0.5-0.7c0-0.1,0.1-0.2,0.2-0.3
			c0.1-0.1,0.3-0.2,0.4-0.3c0.1-0.1,0.3-0.2,0.5-0.2c0.2-0.1,0.3-0.2,0.5-0.3c0.2-0.2,0.4-0.4,0.7-0.8c0.2-0.4,0.3-0.8,0.3-1.5
			c0-0.9-0.2-1.6-0.7-2.1c-0.5-0.5-1-0.8-1.6-0.8c-0.7,0-1.3,0.3-1.8,0.8C6.8,34.2,6.6,35,6.6,36c0,0.7,0.1,1.3,0.3,1.9
			c0.2,0.6,0.5,1.2,0.9,1.6c0.4,0.5,0.9,0.8,1.4,1.1c0.5,0.3,1.1,0.4,1.7,0.4c0.7,0,1.4-0.2,1.9-0.6c0.5-0.4,1-0.9,1.4-1.5
			c0.4-0.6,0.8-1.4,1.1-2.2c0.3-0.9,0.6-1.8,0.9-2.8l4.4-14.9c0.2-0.6,0.4-1.2,0.8-1.8c0.3-0.5,1-1,2-1.3h1.4v23.8h-2.3v0.9h8.8
			v-0.9H29V27.8h1.7c0.7,0,1.3,0.2,1.7,0.5c0.4,0.3,0.7,0.7,0.9,1.3c0.2,0.5,0.3,1.2,0.4,1.8c0.1,0.7,0.1,1.4,0.2,2.1
			c0.1,1.5,0.2,2.7,0.4,3.6s0.3,1.7,0.6,2.3s0.6,1,1,1.2c0.4,0.3,1,0.4,1.7,0.5c0.2,0,0.5,0,0.8,0c0.3-0.1,0.7-0.2,1.2-0.3
			c0.5-0.2,1-0.5,1.4-0.9l-0.3-0.6C40.2,39.5,40,39.6,39.8,39.6z"/>
		<path class="st0" d="M78,12.3c0.3-0.4,0.5-0.8,0.5-1.4c0-0.5-0.1-0.9-0.3-1.1c-0.2-0.3-0.4-0.5-0.6-0.6C77.3,9.1,77.1,9,76.9,9
			c-0.2,0-0.3,0-0.4,0c0,0-0.2,0-0.4,0c-0.2,0-0.5,0.1-0.7,0.2c-0.2,0.1-0.4,0.3-0.6,0.6c-0.2,0.3-0.3,0.6-0.3,1.1
			c0,0.6,0.2,1,0.5,1.4c0.3,0.4,0.8,0.6,1.5,0.6C77.2,12.9,77.7,12.7,78,12.3z"/>
		<polygon class="st0" points="75.3,16.1 77.6,16.1 77.6,39.8 75.3,39.8 75.3,40.7 84.1,40.7 84.1,39.8 81.8,39.8 81.8,16.1 
			84.1,16.1 84.1,15.2 75.3,15.2 		"/>
		<path class="st0" d="M84,9.2C83.8,9.1,83.5,9,83.3,9c-0.2,0-0.4,0-0.4,0c0,0-0.2,0-0.4,0c-0.2,0-0.5,0.1-0.7,0.2
			c-0.2,0.1-0.4,0.3-0.6,0.6c-0.2,0.3-0.3,0.6-0.3,1.1c0,0.6,0.2,1,0.5,1.4c0.4,0.4,0.9,0.6,1.5,0.6c0.7,0,1.2-0.2,1.5-0.6
			c0.3-0.4,0.5-0.8,0.5-1.4c0-0.5-0.1-0.9-0.3-1.1C84.5,9.5,84.2,9.3,84,9.2z"/>
		<path class="st0" d="M58,19.5c-0.3-0.9-0.7-1.6-1.4-2.3c-0.6-0.6-1.5-1.1-2.6-1.5c-1.1-0.4-2.4-0.6-4-0.6h-8.6v0.9h2.3v23.8h-2.3
			v0.9h9.1v-0.9H48v-10h2c2.8,0,4.9-0.6,6.3-1.8c1.4-1.2,2.1-3.1,2.1-5.8C58.4,21.3,58.2,20.4,58,19.5z M53.6,23.3
			c0,1.4-0.1,2.4-0.3,3.1c-0.2,0.8-0.5,1.3-0.9,1.7c-0.4,0.4-0.8,0.6-1.4,0.7c-0.5,0.1-1.1,0.1-1.7,0.1H48V16.1h1.6
			c0.9,0,1.6,0.1,2.2,0.3c0.5,0.2,0.9,0.5,1.2,0.9c0.3,0.4,0.4,0.9,0.5,1.4c0.1,0.6,0.1,1.2,0.1,1.8L53.6,23.3L53.6,23.3z"/>
		<path class="st0" d="M290.9,39.8l-6.3-24.9h-1.8l-5.3,20.6c-0.1,0.6-0.3,1.1-0.4,1.6c-0.1,0.5-0.3,1-0.5,1.4
			c-0.2,0.4-0.5,0.7-0.8,1c-0.3,0.3-0.8,0.4-1.3,0.4h-2.8V16.1h2.3v-0.9h-15.8v0.9c0.8-0.1,1.5,0,1.9,0.3c0.4,0.3,0.7,0.7,0.8,1.3
			s0.2,1.2,0.2,2.1c0,0.8-0.1,1.7-0.1,2.6l-0.3,10.1c-0.1,1.8-0.3,3.2-0.6,4.4c-0.3,1.1-0.8,2.2-1.2,3h-2.4l-0.3,8.2h1.1
			c0.2-1.7,0.6-3.1,0.9-4c0.4-1,0.8-1.7,1.3-2.2c0.5-0.5,1-0.8,1.5-0.9c0.5-0.1,1-0.2,1.5-0.2h5.6c0.4,0,0.9,0.1,1.4,0.2
			c0.6,0.1,1.2,0.4,1.8,0.9c0.6,0.5,1.1,1.2,1.6,2.2c0.5,1,0.8,2.3,1.1,4h1.1l-0.2-7.4h6.1v-0.9c-0.7-0.1-1.2-0.2-1.6-0.3
			c-0.4-0.1-0.7-0.5-0.9-1.1c-0.1-0.3-0.1-0.5-0.1-0.8c0-0.3,0-0.5,0.1-0.8c0.1-0.8,0.2-1.3,0.2-1.5c0-0.2,0.1-0.3,0.1-0.4l0.4-1.7
			h5.7l1.8,6.6h-2.2v0.9h8.2v-0.9L290.9,39.8L290.9,39.8z M267.6,39.8h-7.8c0.2-0.3,0.4-0.7,0.6-1.2c0.2-0.4,0.3-1,0.5-1.5
			c0.2-0.6,0.3-1.3,0.4-2c0.1-0.8,0.2-1.7,0.2-2.7l0.5-11.8c0-1.2,0.1-2.1,0.2-2.7c0.1-0.6,0.2-1.1,0.4-1.4c0.2-0.3,0.5-0.4,0.8-0.5
			c0.3,0,0.7-0.1,1.2-0.1h2.9L267.6,39.8L267.6,39.8z M279.3,32.4l2.7-10.6l2.7,10.6H279.3z"/>
		<path class="st0" d="M66.8,14.9H65l-5.3,20.6c-0.2,0.6-0.3,1.1-0.4,1.6c-0.1,0.5-0.3,1-0.5,1.4c-0.2,0.4-0.5,0.7-0.8,1
			c-0.3,0.3-0.8,0.4-1.3,0.4v0.9h6.2v-0.9c-0.7-0.1-1.2-0.2-1.6-0.3c-0.4-0.1-0.7-0.5-0.9-1.1c-0.1-0.3-0.1-0.5-0.1-0.8
			c0-0.3,0.1-0.5,0.1-0.8c0.1-0.8,0.2-1.3,0.3-1.5c0-0.2,0.1-0.3,0.1-0.4l0.4-1.7h5.7l1.8,6.6h-2.2v0.9h8.2v-0.9h-1.6L66.8,14.9z
			 M61.4,32.4l2.8-10.6l2.7,10.6H61.4z"/>
		<polygon class="st0" points="185.2,16.1 187.5,16.1 187.5,39.8 185.2,39.8 185.2,40.7 193.6,40.7 193.6,39.8 191.7,39.8 
			191.7,16.1 198.1,16.1 198.1,39.8 196.1,39.8 196.1,40.7 204.6,40.7 204.6,39.8 202.3,39.8 202.3,16.1 204.6,16.1 204.6,15.2 
			185.2,15.2 		"/>
		<path class="st0" d="M254.9,29.9c-0.4-0.6-1.1-1.2-1.9-1.8c-0.8-0.6-2-1.1-3.3-1.5l0-0.2c1.8-0.4,3.2-1.1,4.2-2s1.6-2.2,1.6-3.9
			c0-0.7-0.1-1.4-0.4-2.1c-0.2-0.7-0.7-1.2-1.3-1.7c-0.6-0.5-1.4-0.9-2.4-1.2c-1-0.3-2.2-0.4-3.7-0.4h-8.7v0.9h2.3v23.8h-2h-0.3
			h-1.4l-6.3-24.9h-1.8l-5.2,20.6c-0.2,0.6-0.3,1.1-0.4,1.6c-0.1,0.5-0.3,1-0.5,1.4c-0.2,0.4-0.5,0.7-0.8,1
			c-0.3,0.3-0.7,0.4-1.3,0.4v0.9h6.2v-0.9c-0.7-0.1-1.2-0.2-1.6-0.3c-0.4-0.1-0.7-0.5-0.9-1.1c-0.1-0.3-0.1-0.5-0.1-0.8
			c0-0.3,0-0.5,0.1-0.8c0.1-0.8,0.2-1.3,0.2-1.5c0.1-0.2,0.1-0.3,0.1-0.4l0.4-1.7h5.7l1.8,6.6h-2.2v0.9h8h0.3h8.6
			c1.2,0,2.3-0.2,3.3-0.5c1-0.3,1.9-0.8,2.6-1.4c0.7-0.6,1.3-1.4,1.6-2.3c0.4-0.9,0.6-1.9,0.6-3c0-0.5-0.1-1.1-0.2-1.7
			S255.4,30.6,254.9,29.9z M226,32.4l2.7-10.6l2.7,10.6H226z M245.5,16.1h2.2c0.8,0,1.4,0.2,1.8,0.5c0.4,0.3,0.7,0.7,0.9,1.1
			c0.2,0.4,0.3,0.8,0.3,1.2c0,0.4,0,0.7,0,0.8v2.6c0,0.9-0.1,1.7-0.4,2.2c-0.3,0.5-0.6,0.9-1,1.2c-0.4,0.2-0.8,0.4-1.1,0.4
			c-0.3,0.1-0.6,0.1-0.7,0.1h-2L245.5,16.1L245.5,16.1z M251.2,34.9c0,0.6,0,1.2-0.1,1.8c-0.1,0.6-0.2,1.1-0.5,1.6
			c-0.3,0.5-0.7,0.8-1.2,1.1c-0.5,0.3-1.3,0.4-2.2,0.4h-1.8v-13h2.1c0.9,0,1.5,0.2,2,0.6c0.5,0.3,0.8,0.8,1.1,1.4
			c0.2,0.5,0.4,1.1,0.5,1.8c0.1,0.6,0.1,1.2,0.1,1.7L251.2,34.9L251.2,34.9z"/>
		<path class="st0" d="M214.9,29.8c2.8,0,4.9-0.6,6.3-1.8c1.4-1.2,2.1-3.1,2.1-5.8c0-0.9-0.1-1.8-0.4-2.7c-0.3-0.9-0.7-1.6-1.3-2.3
			c-0.7-0.6-1.5-1.1-2.6-1.5c-1.1-0.4-2.4-0.6-4-0.6h-8.6v0.9h2.3v23.8h-2.3v0.9h9.1v-0.9H213v-10H214.9z M213,16.1h1.7
			c0.9,0,1.6,0.1,2.2,0.3c0.5,0.2,0.9,0.5,1.2,0.9c0.3,0.4,0.5,0.9,0.5,1.4c0.1,0.6,0.1,1.2,0.1,1.8v2.8c0,1.4-0.1,2.4-0.3,3.1
			c-0.2,0.8-0.5,1.3-0.9,1.7c-0.4,0.4-0.8,0.6-1.3,0.7c-0.5,0.1-1.1,0.1-1.8,0.1H213L213,16.1L213,16.1z"/>
		<path class="st0" d="M168.4,14.9h-1.8l-5.2,20.6c-0.2,0.6-0.3,1.1-0.4,1.6c-0.1,0.5-0.3,1-0.5,1.4c-0.2,0.4-0.5,0.7-0.8,1
			c-0.1,0.1-0.2,0.1-0.3,0.2l-0.2-0.3c-0.2,0.2-0.5,0.3-0.7,0.3c-0.4,0-0.7-0.2-0.8-0.6s-0.3-0.9-0.3-1.5c0-0.6-0.1-1.3-0.1-2
			c0-0.7,0-1.5-0.1-2.2c-0.1-1.4-0.4-2.5-0.9-3.3c-0.5-0.8-1-1.5-1.6-1.9c-0.6-0.4-1.2-0.7-1.8-0.8c-0.6-0.1-1.1-0.2-1.4-0.2l0-0.2
			c0.5-0.4,0.9-0.9,1.1-1.6c0.2-0.6,0.3-1.6,0.3-3c0-0.5,0.1-1.1,0.1-1.7s0.1-1.3,0.1-1.9s0.2-1.1,0.4-1.5c0.2-0.4,0.4-0.6,0.8-0.6
			c0.2,0,0.3,0.1,0.4,0.2c0,0.1,0,0.3,0,0.5c0,0.2,0,0.4-0.1,0.5c-0.1,0.1-0.1,0.3-0.2,0.5c0,0.1,0,0.2,0,0.3c0,0.1,0,0.2,0,0.3
			c0,0.6,0.2,1.1,0.5,1.6c0.3,0.5,0.9,0.8,1.7,0.8c0.8,0,1.4-0.3,1.8-0.9c0.4-0.7,0.6-1.4,0.6-2.2c0-0.3-0.1-0.7-0.2-1.1
			c-0.1-0.4-0.3-0.8-0.5-1.1c-0.2-0.3-0.6-0.6-1-0.8c-0.4-0.2-0.9-0.3-1.5-0.3c-0.7,0-1.2,0.1-1.7,0.3c-0.5,0.2-0.8,0.6-1.1,1.2
			c-0.3,0.6-0.5,1.3-0.7,2.3c-0.2,1-0.3,2.2-0.3,3.7c0,1-0.1,1.9-0.2,2.5c-0.2,0.6-0.4,1.1-0.6,1.4c-0.3,0.3-0.5,0.5-0.9,0.6
			c-0.3,0.1-0.7,0.1-1.1,0.1h-1.5V16.1h2.3v-0.9h-8.7v0.9h2.3v23.8h-2.3v0.9h8.7v-0.9h-2.3V27.8h1.7c0.7,0,1.3,0.2,1.7,0.5
			c0.4,0.3,0.7,0.7,0.9,1.3c0.2,0.5,0.4,1.2,0.4,1.8c0.1,0.7,0.2,1.4,0.2,2.1c0.1,1.5,0.2,2.7,0.4,3.6c0.1,1,0.3,1.7,0.6,2.3
			c0.2,0.6,0.6,1,1,1.2c0.4,0.3,1,0.4,1.7,0.5c0.3,0,0.5,0,0.8,0c0.3-0.1,0.7-0.2,1.2-0.3c0.1,0,0.2-0.1,0.3-0.1v0.1h6.2v-0.9
			c-0.7-0.1-1.2-0.2-1.6-0.3c-0.4-0.1-0.7-0.5-0.9-1.1c-0.1-0.3-0.1-0.5-0.1-0.8c0-0.3,0.1-0.5,0.1-0.8c0.1-0.8,0.2-1.3,0.3-1.5
			c0-0.2,0.1-0.3,0.1-0.4l0.4-1.7h5.7l1.8,6.6h-2.2v0.9h8.2v-0.9h-1.6L168.4,14.9z M163,32.4l2.7-10.6l2.7,10.6H163z"/>
		<path class="st0" d="M121.4,35.7c-0.4,1.1-0.9,2-1.5,2.6c-0.5,0.7-1.1,1.1-1.7,1.4c-0.6,0.3-1.1,0.5-1.6,0.5
			c-0.5,0-0.9-0.2-1.4-0.5c-0.5-0.3-0.9-0.8-1.3-1.6c-0.4-0.8-0.7-1.8-1-3c-0.2-1.3-0.4-2.9-0.4-4.9l0-5.3c0-0.6,0-1.4,0.1-2.4
			c0-1,0.1-2.1,0.4-3c0.2-1,0.6-1.9,1.2-2.6c0.6-0.7,1.4-1.1,2.5-1.1c1.2,0,2.4,0.7,3.3,2c1,1.4,1.7,3.2,2,5.6h0.8v-8.2h-1
			c-0.1,0.3-0.2,0.5-0.4,0.6c-0.2,0.1-0.4,0.2-0.5,0.2s-0.2,0-0.3,0c-0.1,0-0.2-0.1-0.3-0.1c-0.5-0.2-1-0.4-1.6-0.6
			c-0.6-0.2-1.3-0.3-2-0.3c-1.3,0-2.5,0.4-3.6,1.2c-1.1,0.8-2,1.8-2.8,3c-0.8,1.3-1.4,2.6-1.8,4.1c-0.4,1.5-0.6,3-0.6,4.5
			c0,1.6,0.2,3.1,0.6,4.7c0.4,1.6,1,3,1.8,4.3c0.8,1.3,1.7,2.3,2.8,3.1c1.1,0.8,2.4,1.2,3.8,1.2c0.6,0,1-0.1,1.4-0.2
			c0.4-0.1,0.6-0.3,0.9-0.4c0.3-0.2,0.6-0.3,0.9-0.5c0.3-0.2,0.6-0.2,0.9-0.2c0.2,0,0.4,0.1,0.6,0.2c0.2,0.1,0.4,0.4,0.6,0.8h1
			l0.2-9h-1C122.1,33.3,121.8,34.6,121.4,35.7z"/>
		<polygon class="st0" points="97.8,16.1 99.7,16.1 99.7,26.8 93.3,26.8 93.3,16.1 95.2,16.1 95.2,15.2 86.9,15.2 86.9,16.1 
			89.1,16.1 89.1,39.8 86.9,39.8 86.9,40.7 95.2,40.7 95.2,39.8 93.3,39.8 93.3,27.7 99.7,27.7 99.7,39.8 97.8,39.8 97.8,40.7 
			106.1,40.7 106.1,39.8 103.9,39.8 103.9,16.1 106.1,16.1 106.1,15.2 97.8,15.2 		"/>
		<path class="st0" d="M138,28.1c-0.7-0.6-1.6-1.1-2.5-1.4c-1-0.3-2.1-0.5-3.2-0.5h-1.2V16.1h2.3v-0.9h-8.8v0.9h2.3v23.8h-2.3v0.9
			h8.1c0.7,0,1.6-0.1,2.5-0.2c0.9-0.1,1.7-0.5,2.5-1c0.8-0.5,1.4-1.2,1.9-2.2c0.5-0.9,0.8-2.2,0.8-3.8c0-1.2-0.2-2.3-0.6-3.2
			C139.3,29.4,138.7,28.7,138,28.1z M135.5,34.9c0,1-0.1,1.8-0.2,2.4c-0.1,0.6-0.3,1.1-0.6,1.5c-0.3,0.4-0.6,0.7-1.1,0.8
			c-0.4,0.2-0.9,0.2-1.5,0.2h-1V27h1.2c0.7,0,1.2,0.1,1.6,0.3c0.4,0.2,0.7,0.5,1,0.9c0.2,0.4,0.4,0.9,0.5,1.6
			c0.1,0.6,0.1,1.3,0.1,2.1L135.5,34.9L135.5,34.9z"/>
	</g>
</g>
</svg>
