<?xml version="1.0" encoding="utf-8"?>
<!-- Generator: Adobe Illustrator 21.0.2, SVG Export Plug-In . SVG Version: 6.00 Build 0)  -->
<svg version="1.1" id="Слой_1" xmlns="http://www.w3.org/2000/svg" xmlns:xlink="http://www.w3.org/1999/xlink" x="0px" y="0px"
	 viewBox="0 0 1505 1536" style="enable-background:new 0 0 1505 1536;" xml:space="preserve">
<style type="text/css">
	.st0{fill:#FFFFFF;}
</style>
<path class="st0" d="M768,658h725c8,44.7,12,87.3,12,128c0,144.7-30.3,273.8-91,387.5S1266.8,1376,1154.5,1440s-241.2,96-386.5,96
	c-104.7,0-204.3-20.2-299-60.5s-176.3-94.8-245-163.5s-123.2-150.3-163.5-245S0,872.7,0,768s20.2-204.3,60.5-299
	S155.3,292.7,224,224S374.3,100.8,469,60.5S663.3,0,768,0c200,0,371.7,67,515,201l-209,201c-82-79.3-184-119-306-119
	c-86,0-165.5,21.7-238.5,65S398.7,450.2,356,524.5S292,680,292,768s21.3,169.2,64,243.5s100.5,133.2,173.5,176.5s152.5,65,238.5,65
	c58,0,111.3-8,160-24c48.7-16,88.7-36,120-60s58.7-51.3,82-82s40.5-59.7,51.5-87s18.5-53.3,22.5-78H768V658z"/>
</svg>
