<?xml version="1.0" encoding="utf-8"?>
<!-- Generator: Adobe Illustrator 21.0.2, SVG Export Plug-In . SVG Version: 6.00 Build 0)  -->
<svg version="1.1" id="Livello_1" xmlns="http://www.w3.org/2000/svg" xmlns:xlink="http://www.w3.org/1999/xlink" x="0px" y="0px"
	 viewBox="0 0 141.7 141.7" style="enable-background:new 0 0 141.7 141.7;" xml:space="preserve">
<style type="text/css">
	.st0{fill:#FFFFFF;}
</style>
<g id="Livello_73">
	<path class="st0" d="M115.8,70.7c-11.8,11.8-30.4,12.5-43,2.2l-4.6-4.6c-10.3-12.6-9.6-31.3,2.2-43c12.5-12.5,32.9-12.5,45.4,0
		C128.4,37.8,128.4,58.1,115.8,70.7 M126.9,82.3c18.8-18.8,18.8-49.3,0-68.2c-18.8-18.8-49.3-18.8-68.2,0
		c-16.9,16.9-18.6,43.2-5.2,62L2.4,127.3c-3.1,3.1-3.1,8.2,0,11.4c3.1,3.1,8.2,3.1,11.4,0L65,87.5C83.8,100.9,110.1,99.1,126.9,82.3
		"/>
</g>
<g id="Livello_1_1_">
</g>
</svg>
