<?xml version="1.0" encoding="utf-8"?>
<!-- Generator: Adobe Illustrator 21.0.2, SVG Export Plug-In . SVG Version: 6.00 Build 0)  -->
<svg version="1.1" id="Capa_1" xmlns="http://www.w3.org/2000/svg" xmlns:xlink="http://www.w3.org/1999/xlink" x="0px" y="0px"
	 viewBox="0 0 25.5 27.5" style="enable-background:new 0 0 25.5 27.5;" xml:space="preserve">
<style type="text/css">
	.st0{fill:#FFFFFF;}
</style>
<g>
	<path class="st0" d="M19.2,13.2c-1.2,2.8-3.8,5.1-6.4,5.1c-3.1,0-5.4-2.3-6.6-5C-0.9,16.8,0,26.1,0,26.1c0,1.3,1,1.4,2.2,1.4h10.6
		h10.6c1.2,0,2.2-0.2,2.2-1.4C25.5,26.1,26.2,16.8,19.2,13.2z M23.3,25.5H12.8H2.2c-0.1,0-0.1,0-0.2,0c0-1.4,0-6.5,3.5-9.4
		c1.8,2.7,4.4,4.2,7.3,4.2c2.6,0,5.3-1.7,7.1-4.2c3.5,3,3.7,8,3.7,9.5C23.5,25.5,23.4,25.5,23.3,25.5z"/>
	<path class="st0" d="M12.8,16.7c3.5,0,6.3-5,6.3-9.2c0-4.2-2.9-7.5-6.4-7.5C9.2,0,6.3,3.4,6.3,7.5C6.3,11.7,9.3,16.7,12.8,16.7z
		 M12.7,2c2.4,0,4.4,2.5,4.4,5.5c0,3.4-2.3,7.2-4.3,7.2c-2.1,0-4.4-3.8-4.4-7.2C8.3,4.5,10.3,2,12.7,2z"/>
</g>
</svg>
